<svg xmlns="http://www.w3.org/2000/svg" width="358" height="168" fill="none"><g opacity=".5" transform="rotate(8 209.96 8.85)"><rect width="108.5" height="144.5" x="209.96" y="8.85" fill="url(#a)" rx="11.25"/><rect width="108.5" height="144.5" x="209.96" y="8.85" stroke="#D7D7D7" stroke-width="1.5" rx="11.25"/></g><g opacity=".5" transform="scale(-1 1) rotate(8 -131.17 -1043.77)"><rect width="108.5" height="144.5" x="-.64" y=".85" fill="url(#b)" rx="11.25"/><rect width="108.5" height="144.5" x="-.64" y=".85" stroke="#D7D7D7" stroke-width="1.5" rx="11.25"/></g><rect width="124.5" height="166.5" x="116.75" y=".75" fill="url(#c)" rx="11.25"/><rect width="124.5" height="166.5" x="116.75" y=".75" stroke="#D7D7D7" stroke-width="1.5" rx="11.25"/><path stroke="#D7D7D7" stroke-linecap="round" stroke-linejoin="round" stroke-width="1.5" d="M179 96.33a13.33 13.33 0 1 0 0-26.66 13.33 13.33 0 0 0 0 26.66Z"/><path stroke="#D7D7D7" stroke-linecap="round" stroke-linejoin="round" stroke-width="1.5" d="M184.33 88.33s-2-2.66-5.33-2.66-5.33 2.66-5.33 2.66"/><path stroke="#D7D7D7" stroke-linecap="round" stroke-linejoin="round" stroke-width="2" d="M175 79h.01M183 79h.01"/><defs><linearGradient id="a" x1="264.32" x2="264.32" y1="8" y2="154" gradientUnits="userSpaceOnUse"><stop stop-color="#fff"/><stop offset="1" stop-color="#E6E6E6"/></linearGradient><linearGradient id="b" x1="55" x2="55" y1="0" y2="146" gradientUnits="userSpaceOnUse"><stop stop-color="#fff"/><stop offset="1" stop-color="#E6E6E6"/></linearGradient><linearGradient id="c" x1="179" x2="179" y1="0" y2="168" gradientUnits="userSpaceOnUse"><stop stop-color="#fff"/><stop offset="1" stop-color="#E6E6E6"/></linearGradient></defs></svg>