<svg xmlns="http://www.w3.org/2000/svg" width="24" height="24" fill="none" stroke="currentColor" stroke-linecap="round" stroke-linejoin="round" stroke-width="2" class="lucide lucide-puzzle"><path d="M19.44 7.85c-.05.32.06.65.29.88l1.57 1.57a2.4 2.4 0 0 1 0 3.4l-1.61 1.62a.98.98 0 0 1-.84.27c-.47-.07-.8-.48-.97-.92a2.5 2.5 0 1 0-3.21 3.21c.44.17.85.5.92.97a.98.98 0 0 1-.27.83L13.7 21.3A2.4 2.4 0 0 1 12 22a2.4 2.4 0 0 1-1.7-.7l-1.57-1.57a1.03 1.03 0 0 0-.88-.3c-.5.08-.84.51-1.02.98a2.5 2.5 0 1 1-3.24-3.24c.47-.18.9-.53.97-1.02a1.03 1.03 0 0 0-.29-.88L2.7 13.7A2.4 2.4 0 0 1 2 12c0-.62.23-1.23.7-1.7l1.53-1.53c.24-.24.58-.35.92-.3.51.07.87.52 1.07 1a2.5 2.5 0 1 0 3.26-3.25c-.48-.2-.93-.56-1.01-1.08-.05-.33.06-.67.3-.91L10.3 2.7A2.4 2.4 0 0 1 12 2c.62 0 1.23.23 1.7.7l1.57 1.57c.23.23.56.34.88.3.5-.08.84-.51 1.02-.98a2.5 2.5 0 1 1 3.24 3.24c-.47.18-.9.53-.97 1.02Z"/></svg>