<svg xmlns="http://www.w3.org/2000/svg" width="191" height="56" fill="none"><g filter="url(#a)"><rect width="24" height="24" x="32" y="6.21" fill="#fff" rx="4" transform="rotate(-15 32 6.21)"/></g><path fill="#CD5BC6" fill-opacity=".6" d="m46.9 18.06-3.06-5.2.9-.25L47 16.67l.05-.01-.03-4.66.89-.23 2.3 4.04h.05l-.07-4.66.9-.24-.06 6.04-.86.23-2.3-3.9-.05.02-.05 4.53-.86.23Z"/><g filter="url(#b)"><rect width="24" height="24" x="95.21" y="-20" fill="#fff" rx="4" transform="rotate(15 95.21 -20)"/></g><g filter="url(#c)"><rect width="24" height="24" x="131.21" y="5" fill="#fff" rx="4" transform="rotate(15 131.21 5)"/></g><path fill="#CD5BC6" fill-opacity=".6" d="M142.1 18.68a.83.83 0 0 0-.2-.7c-.18-.2-.43-.35-.75-.43a1.55 1.55 0 0 0-.63-.05.96.96 0 0 0-.47.19.73.73 0 0 0-.25.76c.04.11.1.22.18.31a3.73 3.73 0 0 0 .6.45l.52.29c.17.09.34.2.5.32.17.13.32.27.45.44a1.36 1.36 0 0 1 .24 1.25c-.08.32-.24.58-.47.78-.23.2-.52.34-.87.4s-.74.03-1.18-.09a2.83 2.83 0 0 1-1.04-.5 1.74 1.74 0 0 1-.57-.75 1.7 1.7 0 0 1-.05-.96l.85.23a.9.9 0 0 0 .06.56c.08.16.2.3.37.42.17.11.36.2.58.25.24.07.46.09.66.06.21-.02.4-.09.53-.2.15-.1.25-.25.3-.43a.6.6 0 0 0-.04-.45 1.09 1.09 0 0 0-.3-.37c-.15-.1-.31-.22-.5-.32l-.62-.36a2.67 2.67 0 0 1-.92-.83c-.2-.3-.25-.66-.14-1.05.09-.32.25-.58.49-.78.24-.2.53-.31.86-.37.34-.05.7-.03 1.07.07.38.1.7.26.96.47.25.21.44.46.54.74.1.28.12.57.05.87l-.82-.22Z"/><g filter="url(#d)"><rect width="10" height="10" x="171.59" y="6" fill="#fff" rx="2" transform="rotate(15 171.59 6)"/></g><g filter="url(#e)"><rect width="10" height="10" x="187.59" y="40" fill="#fff" rx="2" transform="rotate(15 187.59 40)"/></g><g filter="url(#f)"><rect width="4" height="4" x="2.07" y="12" fill="#fff" fill-opacity=".5" rx="1" transform="rotate(15 2.07 12)"/></g><g filter="url(#g)"><rect width="4" height="4" x="90" y="28.07" fill="#fff" fill-opacity=".5" rx="1" transform="rotate(-15 90 28.07)"/></g><g filter="url(#h)"><rect width="4" height="4" x="144" y="50.04" fill="#fff" fill-opacity=".5" rx="1" transform="rotate(-15 144 50.04)"/></g><g filter="url(#i)"><rect width="4" height="4" x="174" y="32.04" fill="#fff" fill-opacity=".5" rx="1" transform="rotate(-15 174 32.04)"/></g><g filter="url(#j)"><rect width="4" height="4" x="66" y="49.04" fill="#fff" fill-opacity=".5" rx="1" transform="rotate(-15 66 49.04)"/></g><defs><filter id="a" width="35.6" height="35.6" x="28.9" y="-1.1" color-interpolation-filters="sRGB" filterUnits="userSpaceOnUse"><feFlood flood-opacity="0" result="BackgroundImageFix"/><feColorMatrix in="SourceAlpha" result="hardAlpha" values="0 0 0 0 0 0 0 0 0 0 0 0 0 0 0 0 0 0 127 0"/><feOffset dy="2"/><feGaussianBlur stdDeviation="2"/><feComposite in2="hardAlpha" operator="out"/><feColorMatrix values="0 0 0 0 0.890196 0 0 0 0 0.756863 0 0 0 0 0.847059 0 0 0 0.6 0"/><feBlend in2="BackgroundImageFix" result="effect1_dropShadow_16996_5000"/><feBlend in="SourceGraphic" in2="effect1_dropShadow_16996_5000" result="shape"/><feColorMatrix in="SourceAlpha" result="hardAlpha" values="0 0 0 0 0 0 0 0 0 0 0 0 0 0 0 0 0 0 127 0"/><feOffset dx="2" dy="-2"/><feGaussianBlur stdDeviation="1"/><feComposite in2="hardAlpha" k2="-1" k3="1" operator="arithmetic"/><feColorMatrix values="0 0 0 0 0.976471 0 0 0 0 0.92549 0 0 0 0 0.992157 0 0 0 1 0"/><feBlend in2="shape" result="effect2_innerShadow_16996_5000"/></filter><filter id="b" width="35.6" height="35.6" x="85.9" y="-21.1" color-interpolation-filters="sRGB" filterUnits="userSpaceOnUse"><feFlood flood-opacity="0" result="BackgroundImageFix"/><feColorMatrix in="SourceAlpha" result="hardAlpha" values="0 0 0 0 0 0 0 0 0 0 0 0 0 0 0 0 0 0 127 0"/><feOffset dy="2"/><feGaussianBlur stdDeviation="2"/><feComposite in2="hardAlpha" operator="out"/><feColorMatrix values="0 0 0 0 0.890196 0 0 0 0 0.756863 0 0 0 0 0.847059 0 0 0 0.6 0"/><feBlend in2="BackgroundImageFix" result="effect1_dropShadow_16996_5000"/><feBlend in="SourceGraphic" in2="effect1_dropShadow_16996_5000" result="shape"/><feColorMatrix in="SourceAlpha" result="hardAlpha" values="0 0 0 0 0 0 0 0 0 0 0 0 0 0 0 0 0 0 127 0"/><feOffset dx="2" dy="-2"/><feGaussianBlur stdDeviation="1"/><feComposite in2="hardAlpha" k2="-1" k3="1" operator="arithmetic"/><feColorMatrix values="0 0 0 0 0.976471 0 0 0 0 0.92549 0 0 0 0 0.992157 0 0 0 1 0"/><feBlend in2="shape" result="effect2_innerShadow_16996_5000"/></filter><filter id="c" width="35.6" height="35.6" x="121.9" y="3.9" color-interpolation-filters="sRGB" filterUnits="userSpaceOnUse"><feFlood flood-opacity="0" result="BackgroundImageFix"/><feColorMatrix in="SourceAlpha" result="hardAlpha" values="0 0 0 0 0 0 0 0 0 0 0 0 0 0 0 0 0 0 127 0"/><feOffset dy="2"/><feGaussianBlur stdDeviation="2"/><feComposite in2="hardAlpha" operator="out"/><feColorMatrix values="0 0 0 0 0.890196 0 0 0 0 0.756863 0 0 0 0 0.847059 0 0 0 0.6 0"/><feBlend in2="BackgroundImageFix" result="effect1_dropShadow_16996_5000"/><feBlend in="SourceGraphic" in2="effect1_dropShadow_16996_5000" result="shape"/><feColorMatrix in="SourceAlpha" result="hardAlpha" values="0 0 0 0 0 0 0 0 0 0 0 0 0 0 0 0 0 0 127 0"/><feOffset dx="2" dy="-2"/><feGaussianBlur stdDeviation="1"/><feComposite in2="hardAlpha" k2="-1" k3="1" operator="arithmetic"/><feColorMatrix values="0 0 0 0 0.976471 0 0 0 0 0.92549 0 0 0 0 0.992157 0 0 0 1 0"/><feBlend in2="shape" result="effect2_innerShadow_16996_5000"/></filter><filter id="d" width="15.35" height="16.35" x="167.45" y="5.45" color-interpolation-filters="sRGB" filterUnits="userSpaceOnUse"><feFlood flood-opacity="0" result="BackgroundImageFix"/><feColorMatrix in="SourceAlpha" result="hardAlpha" values="0 0 0 0 0 0 0 0 0 0 0 0 0 0 0 0 0 0 127 0"/><feOffset dy="2"/><feGaussianBlur stdDeviation="1"/><feComposite in2="hardAlpha" operator="out"/><feColorMatrix values="0 0 0 0 0.950716 0 0 0 0 0.814762 0 0 0 0 0.907664 0 0 0 0.6 0"/><feBlend in2="BackgroundImageFix" result="effect1_dropShadow_16996_5000"/><feBlend in="SourceGraphic" in2="effect1_dropShadow_16996_5000" result="shape"/><feColorMatrix in="SourceAlpha" result="hardAlpha" values="0 0 0 0 0 0 0 0 0 0 0 0 0 0 0 0 0 0 127 0"/><feOffset dy="-1"/><feGaussianBlur stdDeviation="1"/><feComposite in2="hardAlpha" k2="-1" k3="1" operator="arithmetic"/><feColorMatrix values="0 0 0 0 0.976471 0 0 0 0 0.92549 0 0 0 0 0.992157 0 0 0 1 0"/><feBlend in2="shape" result="effect2_innerShadow_16996_5000"/></filter><filter id="e" width="15.35" height="16.35" x="183.45" y="39.45" color-interpolation-filters="sRGB" filterUnits="userSpaceOnUse"><feFlood flood-opacity="0" result="BackgroundImageFix"/><feColorMatrix in="SourceAlpha" result="hardAlpha" values="0 0 0 0 0 0 0 0 0 0 0 0 0 0 0 0 0 0 127 0"/><feOffset dy="2"/><feGaussianBlur stdDeviation="1"/><feComposite in2="hardAlpha" operator="out"/><feColorMatrix values="0 0 0 0 0.950716 0 0 0 0 0.814762 0 0 0 0 0.907664 0 0 0 0.6 0"/><feBlend in2="BackgroundImageFix" result="effect1_dropShadow_16996_5000"/><feBlend in="SourceGraphic" in2="effect1_dropShadow_16996_5000" result="shape"/><feColorMatrix in="SourceAlpha" result="hardAlpha" values="0 0 0 0 0 0 0 0 0 0 0 0 0 0 0 0 0 0 127 0"/><feOffset dy="-1"/><feGaussianBlur stdDeviation="1"/><feComposite in2="hardAlpha" k2="-1" k3="1" operator="arithmetic"/><feColorMatrix values="0 0 0 0 0.976471 0 0 0 0 0.92549 0 0 0 0 0.992157 0 0 0 1 0"/><feBlend in2="shape" result="effect2_innerShadow_16996_5000"/></filter><filter id="f" width="6.45" height="6.45" x=".26" y="11.22" color-interpolation-filters="sRGB" filterUnits="userSpaceOnUse"><feFlood flood-opacity="0" result="BackgroundImageFix"/><feBlend in="SourceGraphic" in2="BackgroundImageFix" result="shape"/><feGaussianBlur result="effect1_foregroundBlur_16996_5000" stdDeviation=".5"/></filter><filter id="g" width="6.45" height="6.45" x="89.22" y="26.26" color-interpolation-filters="sRGB" filterUnits="userSpaceOnUse"><feFlood flood-opacity="0" result="BackgroundImageFix"/><feBlend in="SourceGraphic" in2="BackgroundImageFix" result="shape"/><feGaussianBlur result="effect1_foregroundBlur_16996_5000" stdDeviation=".5"/></filter><filter id="h" width="6.45" height="6.45" x="143.22" y="48.22" color-interpolation-filters="sRGB" filterUnits="userSpaceOnUse"><feFlood flood-opacity="0" result="BackgroundImageFix"/><feBlend in="SourceGraphic" in2="BackgroundImageFix" result="shape"/><feGaussianBlur result="effect1_foregroundBlur_16996_5000" stdDeviation=".5"/></filter><filter id="i" width="6.45" height="6.45" x="173.22" y="30.22" color-interpolation-filters="sRGB" filterUnits="userSpaceOnUse"><feFlood flood-opacity="0" result="BackgroundImageFix"/><feBlend in="SourceGraphic" in2="BackgroundImageFix" result="shape"/><feGaussianBlur result="effect1_foregroundBlur_16996_5000" stdDeviation=".5"/></filter><filter id="j" width="6.45" height="6.45" x="65.22" y="47.22" color-interpolation-filters="sRGB" filterUnits="userSpaceOnUse"><feFlood flood-opacity="0" result="BackgroundImageFix"/><feBlend in="SourceGraphic" in2="BackgroundImageFix" result="shape"/><feGaussianBlur result="effect1_foregroundBlur_16996_5000" stdDeviation=".5"/></filter></defs></svg>