<svg xmlns="http://www.w3.org/2000/svg" width="1396" height="167" fill="none"><g filter="url(#a)"><rect width="48" height="48" x="478" y="-7.58" fill="#fff" rx="8" transform="rotate(-15 478 -7.58)"/></g><path fill="#CD5BC6" fill-opacity=".6" d="m510.98 14.23-3.64.98-3.02-11.24 3.76-1.01c1.1-.3 2.1-.32 3.02-.09a4.6 4.6 0 0 1 2.33 1.44 6.77 6.77 0 0 1 1.44 2.84c.31 1.17.37 2.23.17 3.19-.2.95-.64 1.76-1.33 2.43a6.11 6.11 0 0 1-2.74 1.46Zm-2.35-.96 1.85-.5a4.43 4.43 0 0 0 2.01-1.05c.48-.48.78-1.06.9-1.75.11-.7.05-1.49-.19-2.38a5.56 5.56 0 0 0-1.02-2.13 3.1 3.1 0 0 0-1.62-1.06 4.21 4.21 0 0 0-2.19.07l-1.95.52 2.21 8.28Z"/><g filter="url(#b)"><rect width="48" height="48" x="98" y="92.42" fill="#fff" rx="8" transform="rotate(-15 98 92.42)"/></g><path fill="#CD5BC6" fill-opacity=".6" d="m127.56 115.14-6.13-10.4 1.78-.48 4.53 8.12.1-.03-.05-9.31 1.76-.48 4.61 8.1.1-.02-.14-9.3 1.79-.48-.11 12.08-1.7.45-4.63-7.78-.09.02-.1 9.06-1.72.45Z"/><g filter="url(#c)"><rect width="48" height="48" x="1027" y="-7.58" fill="#fff" rx="8" transform="rotate(-15 1027 -7.58)"/></g><path fill="#CD5BC6" fill-opacity=".6" d="M1049.16 16.74c-.82.22-1.57.22-2.26 0a3.82 3.82 0 0 1-1.76-1.17 5.23 5.23 0 0 1-1.07-2.13 5.2 5.2 0 0 1-.13-2.4c.15-.74.46-1.37.95-1.9.49-.53 1.13-.9 1.92-1.1a4.1 4.1 0 0 1 1.81-.1c.56.09 1.05.31 1.48.65.42.34.74.8.95 1.34l-1.6.43a1.97 1.97 0 0 0-.88-.86c-.38-.2-.84-.23-1.36-.1-.46.13-.83.36-1.11.7-.27.32-.45.73-.52 1.23a4.1 4.1 0 0 0 .13 1.63c.17.62.4 1.12.71 1.52.31.4.66.67 1.07.82.41.16.84.17 1.31.05a1.9 1.9 0 0 0 1.31-1.07c.11-.26.17-.56.16-.88l1.59-.43a3.2 3.2 0 0 1-1.06 2.93c-.43.38-.97.66-1.64.84Zm6.85-11.05.35 1.31-4.6 1.24-.36-1.32 4.61-1.23Zm-3.91-1.12 1.64-.44 2.14 7.97c.08.32.19.55.33.68.14.14.29.21.45.23a1.82 1.82 0 0 0 .86-.17l.22-.1.66 1.27c-.08.06-.21.13-.37.22a3.53 3.53 0 0 1-1.91.33 2.14 2.14 0 0 1-1.11-.5 2.23 2.23 0 0 1-.68-1.18l-2.23-8.31Zm7.98 9.06-2.26-8.43 1.59-.43.36 1.34.09-.02c.03-.5.2-.92.52-1.29s.73-.62 1.22-.75a10.96 10.96 0 0 1 .71-.15l.42 1.57a3.57 3.57 0 0 0-.88.13c-.39.1-.71.28-.97.53a1.96 1.96 0 0 0-.54 1.91l1.38 5.15-1.64.44Zm4.56-13.27 3.01 11.24-1.64.44L1063 .8l1.64-.44Z"/><g filter="url(#d)"><rect width="48" height="48" x="244.42" y="-9" fill="#fff" rx="8" transform="rotate(15 244.42 -9)"/></g><path fill="#CD5BC6" fill-opacity=".6" d="m257.57 24.44-1.8-.49 7.06-10.15 1.96.52 1.03 12.33-1.8-.49-.71-10.05-.1-.02-5.64 8.35Zm1.48-4.32 5.84 1.56-.38 1.43-5.84-1.57.38-1.42Z"/><g filter="url(#e)"><rect width="48" height="48" x="359.42" y="57" fill="#fff" rx="8" transform="rotate(15 359.42 57)"/></g><path fill="#CD5BC6" fill-opacity=".6" d="M380.96 83.27c.08-.54-.05-1-.4-1.4-.35-.4-.84-.7-1.49-.87a3.09 3.09 0 0 0-1.25-.1c-.38.05-.7.18-.95.38s-.41.46-.5.78a1.3 1.3 0 0 0 0 .74c.08.23.2.44.37.62.18.19.37.36.58.5.22.16.43.29.63.4l1.03.58c.33.18.67.4 1 .65.34.25.64.54.9.88a2.73 2.73 0 0 1 .49 2.5 3.09 3.09 0 0 1-.96 1.56 3.4 3.4 0 0 1-1.73.79c-.7.12-1.48.06-2.36-.18a5.65 5.65 0 0 1-2.08-.98 3.48 3.48 0 0 1-1.14-1.52 3.42 3.42 0 0 1-.1-1.91l1.7.45c-.08.42-.04.79.12 1.12.16.33.4.61.74.84.33.23.71.4 1.15.51.48.13.92.17 1.34.12.41-.05.77-.18 1.06-.4.28-.21.48-.5.58-.87.09-.33.06-.63-.07-.9a2.2 2.2 0 0 0-.62-.73 7.8 7.8 0 0 0-.98-.65l-1.23-.72a5.34 5.34 0 0 1-1.86-1.66 2.51 2.51 0 0 1-.28-2.1c.18-.64.5-1.16.99-1.55a3.58 3.58 0 0 1 1.73-.74 5.06 5.06 0 0 1 2.13.14c.76.2 1.4.51 1.91.94.51.42.88.91 1.09 1.47.21.56.24 1.14.1 1.74l-1.64-.43Z"/><g filter="url(#f)"><rect width="48" height="48" x="1124.42" y="98" fill="#fff" rx="8" transform="rotate(15 1124.42 98)"/></g><path fill="#CD5BC6" fill-opacity=".6" d="m1134.36 130.84.3-1.13 8.23-7.06-5.96-1.6.39-1.46 8.03 2.15-.3 1.13-8.23 7.07 5.96 1.6-.39 1.46-8.03-2.16Z"/><g filter="url(#g)"><rect width="48" height="48" x="1221.42" y="21" fill="#fff" rx="8" transform="rotate(15 1221.42 21)"/></g><path fill="#CD5BC6" fill-opacity=".6" d="m1242.75 48.77-1.71-.46a2.67 2.67 0 0 0-.58-1.95 3.05 3.05 0 0 0-.75-.67c-.3-.19-.62-.33-.98-.42a3.28 3.28 0 0 0-1.87.02 3.4 3.4 0 0 0-1.59 1.1 5.61 5.61 0 0 0-1.06 2.2c-.24.9-.3 1.72-.18 2.43.13.7.4 1.3.83 1.75.43.46.96.77 1.6.95.36.1.7.13 1.05.12a3 3 0 0 0 .99-.2 2.7 2.7 0 0 0 1.48-1.37l1.71.46a4.46 4.46 0 0 1-3.87 2.71 5.37 5.37 0 0 1-1.79-.18 5.1 5.1 0 0 1-2.41-1.39 5 5 0 0 1-1.27-2.47 7.1 7.1 0 0 1 .18-3.27c.32-1.2.81-2.17 1.48-2.91a4.96 4.96 0 0 1 5.12-1.5c.59.15 1.13.39 1.6.7a4.27 4.27 0 0 1 1.9 2.6c.15.53.19 1.12.12 1.75Z"/><g filter="url(#h)"><rect width="48" height="48" x="871.42" y="-3" fill="#fff" rx="8" transform="rotate(15 871.42 -3)"/></g><path fill="#CD5BC6" fill-opacity=".6" d="m883.68 18.69.68 9.99.13.03 5.58-8.31 1.83.49-7.06 10.16-1.96-.53-1.03-12.32 1.83.49Z"/><g filter="url(#i)"><rect width="20" height="20" x="1171.18" y="-7" fill="#fff" rx="4" transform="rotate(15 1171.18 -7)"/></g><g filter="url(#j)"><rect width="20" height="20" x="270.18" y="107" fill="#fff" rx="4" transform="rotate(15 270.18 107)"/></g><g filter="url(#k)"><rect width="20" height="20" x="1361" y="49.18" fill="#fff" rx="4" transform="rotate(-15 1361 49.18)"/></g><g filter="url(#l)"><rect width="20" height="20" x="122" y="19.18" fill="#fff" rx="4" transform="rotate(-15 122 19.18)"/></g><g filter="url(#m)"><rect width="20" height="20" x="4" y="75.18" fill="#fff" rx="4" transform="rotate(-15 4 75.18)"/></g><g filter="url(#n)"><rect width="20" height="20" x="401" y="-2.82" fill="#fff" rx="4" transform="rotate(-15 401 -2.82)"/></g><g filter="url(#o)"><rect width="20" height="20" x="977" y="89.18" fill="#fff" rx="4" transform="rotate(-15 977 89.18)"/></g><g filter="url(#p)"><rect width="8" height="8" x="43" y="30.07" fill="#fff" fill-opacity=".5" rx="1" transform="rotate(-15 43 30.07)"/></g><g filter="url(#q)"><rect width="8" height="8" x="199" y="75.07" fill="#fff" fill-opacity=".5" rx="1" transform="rotate(-15 199 75.07)"/></g><g filter="url(#r)"><rect width="8" height="8" x="355" y="20.07" fill="#fff" fill-opacity=".5" rx="1" transform="rotate(-15 355 20.07)"/></g><g filter="url(#s)"><rect width="8" height="8" x="498" y="83.07" fill="#fff" fill-opacity=".5" rx="1" transform="rotate(-15 498 83.07)"/></g><g filter="url(#t)"><rect width="8" height="8" x="628" y="15.07" fill="#fff" fill-opacity=".5" rx="1" transform="rotate(-15 628 15.07)"/></g><g filter="url(#u)"><rect width="8" height="8" x="892" y="99.07" fill="#fff" fill-opacity=".5" rx="1" transform="rotate(-15 892 99.07)"/></g><g filter="url(#v)"><rect width="8" height="8" x="810" y="33.07" fill="#fff" fill-opacity=".5" rx="1" transform="rotate(-15 810 33.07)"/></g><g filter="url(#w)"><rect width="8" height="8" x="969" y="19.07" fill="#fff" fill-opacity=".5" rx="1" transform="rotate(-15 969 19.07)"/></g><g filter="url(#x)"><rect width="8" height="8" x="1076" y="110.07" fill="#fff" fill-opacity=".5" rx="1" transform="rotate(-15 1076 110.07)"/></g><g filter="url(#y)"><rect width="8" height="8" x="1146" y="33.07" fill="#fff" fill-opacity=".5" rx="1" transform="rotate(-15 1146 33.07)"/></g><g filter="url(#z)"><rect width="8" height="8" x="1235" y="117.07" fill="#fff" fill-opacity=".5" rx="1" transform="rotate(-15 1235 117.07)"/></g><g filter="url(#A)"><rect width="8" height="8" x="1321" y="27.07" fill="#fff" fill-opacity=".5" rx="1" transform="rotate(-15 1321 27.07)"/></g><g filter="url(#B)"><rect width="8" height="8" x="1385" y="102.07" fill="#fff" fill-opacity=".5" rx="1" transform="rotate(-15 1385 102.07)"/></g><defs><filter id="a" width="71.2" height="71.2" x="471.8" y="-22.2" color-interpolation-filters="sRGB" filterUnits="userSpaceOnUse"><feFlood flood-opacity="0" result="BackgroundImageFix"/><feColorMatrix in="SourceAlpha" result="hardAlpha" values="0 0 0 0 0 0 0 0 0 0 0 0 0 0 0 0 0 0 127 0"/><feOffset dy="4"/><feGaussianBlur stdDeviation="4"/><feComposite in2="hardAlpha" operator="out"/><feColorMatrix values="0 0 0 0 0.890196 0 0 0 0 0.756863 0 0 0 0 0.847059 0 0 0 0.6 0"/><feBlend in2="BackgroundImageFix" result="effect1_dropShadow_16980_3304"/><feBlend in="SourceGraphic" in2="effect1_dropShadow_16980_3304" result="shape"/><feColorMatrix in="SourceAlpha" result="hardAlpha" values="0 0 0 0 0 0 0 0 0 0 0 0 0 0 0 0 0 0 127 0"/><feOffset dx="4" dy="-4"/><feGaussianBlur stdDeviation="2"/><feComposite in2="hardAlpha" k2="-1" k3="1" operator="arithmetic"/><feColorMatrix values="0 0 0 0 0.976471 0 0 0 0 0.92549 0 0 0 0 0.992157 0 0 0 1 0"/><feBlend in2="shape" result="effect2_innerShadow_16980_3304"/></filter><filter id="b" width="71.2" height="71.2" x="91.8" y="77.8" color-interpolation-filters="sRGB" filterUnits="userSpaceOnUse"><feFlood flood-opacity="0" result="BackgroundImageFix"/><feColorMatrix in="SourceAlpha" result="hardAlpha" values="0 0 0 0 0 0 0 0 0 0 0 0 0 0 0 0 0 0 127 0"/><feOffset dy="4"/><feGaussianBlur stdDeviation="4"/><feComposite in2="hardAlpha" operator="out"/><feColorMatrix values="0 0 0 0 0.890196 0 0 0 0 0.756863 0 0 0 0 0.847059 0 0 0 0.6 0"/><feBlend in2="BackgroundImageFix" result="effect1_dropShadow_16980_3304"/><feBlend in="SourceGraphic" in2="effect1_dropShadow_16980_3304" result="shape"/><feColorMatrix in="SourceAlpha" result="hardAlpha" values="0 0 0 0 0 0 0 0 0 0 0 0 0 0 0 0 0 0 127 0"/><feOffset dx="4" dy="-4"/><feGaussianBlur stdDeviation="2"/><feComposite in2="hardAlpha" k2="-1" k3="1" operator="arithmetic"/><feColorMatrix values="0 0 0 0 0.976471 0 0 0 0 0.92549 0 0 0 0 0.992157 0 0 0 1 0"/><feBlend in2="shape" result="effect2_innerShadow_16980_3304"/></filter><filter id="c" width="71.2" height="71.2" x="1020.8" y="-22.2" color-interpolation-filters="sRGB" filterUnits="userSpaceOnUse"><feFlood flood-opacity="0" result="BackgroundImageFix"/><feColorMatrix in="SourceAlpha" result="hardAlpha" values="0 0 0 0 0 0 0 0 0 0 0 0 0 0 0 0 0 0 127 0"/><feOffset dy="4"/><feGaussianBlur stdDeviation="4"/><feComposite in2="hardAlpha" operator="out"/><feColorMatrix values="0 0 0 0 0.890674 0 0 0 0 0.758406 0 0 0 0 0.848789 0 0 0 0.6 0"/><feBlend in2="BackgroundImageFix" result="effect1_dropShadow_16980_3304"/><feBlend in="SourceGraphic" in2="effect1_dropShadow_16980_3304" result="shape"/><feColorMatrix in="SourceAlpha" result="hardAlpha" values="0 0 0 0 0 0 0 0 0 0 0 0 0 0 0 0 0 0 127 0"/><feOffset dx="-4" dy="-4"/><feGaussianBlur stdDeviation="2"/><feComposite in2="hardAlpha" k2="-1" k3="1" operator="arithmetic"/><feColorMatrix values="0 0 0 0 0.976471 0 0 0 0 0.92549 0 0 0 0 0.992157 0 0 0 1 0"/><feBlend in2="shape" result="effect2_innerShadow_16980_3304"/></filter><filter id="d" width="71.2" height="71.2" x="225.8" y="-11.2" color-interpolation-filters="sRGB" filterUnits="userSpaceOnUse"><feFlood flood-opacity="0" result="BackgroundImageFix"/><feColorMatrix in="SourceAlpha" result="hardAlpha" values="0 0 0 0 0 0 0 0 0 0 0 0 0 0 0 0 0 0 127 0"/><feOffset dy="4"/><feGaussianBlur stdDeviation="4"/><feComposite in2="hardAlpha" operator="out"/><feColorMatrix values="0 0 0 0 0.890196 0 0 0 0 0.756863 0 0 0 0 0.847059 0 0 0 0.6 0"/><feBlend in2="BackgroundImageFix" result="effect1_dropShadow_16980_3304"/><feBlend in="SourceGraphic" in2="effect1_dropShadow_16980_3304" result="shape"/><feColorMatrix in="SourceAlpha" result="hardAlpha" values="0 0 0 0 0 0 0 0 0 0 0 0 0 0 0 0 0 0 127 0"/><feOffset dx="4" dy="-4"/><feGaussianBlur stdDeviation="2"/><feComposite in2="hardAlpha" k2="-1" k3="1" operator="arithmetic"/><feColorMatrix values="0 0 0 0 0.976471 0 0 0 0 0.92549 0 0 0 0 0.992157 0 0 0 1 0"/><feBlend in2="shape" result="effect2_innerShadow_16980_3304"/></filter><filter id="e" width="71.2" height="71.2" x="340.8" y="54.8" color-interpolation-filters="sRGB" filterUnits="userSpaceOnUse"><feFlood flood-opacity="0" result="BackgroundImageFix"/><feColorMatrix in="SourceAlpha" result="hardAlpha" values="0 0 0 0 0 0 0 0 0 0 0 0 0 0 0 0 0 0 127 0"/><feOffset dy="4"/><feGaussianBlur stdDeviation="4"/><feComposite in2="hardAlpha" operator="out"/><feColorMatrix values="0 0 0 0 0.890196 0 0 0 0 0.756863 0 0 0 0 0.847059 0 0 0 0.6 0"/><feBlend in2="BackgroundImageFix" result="effect1_dropShadow_16980_3304"/><feBlend in="SourceGraphic" in2="effect1_dropShadow_16980_3304" result="shape"/><feColorMatrix in="SourceAlpha" result="hardAlpha" values="0 0 0 0 0 0 0 0 0 0 0 0 0 0 0 0 0 0 127 0"/><feOffset dx="4" dy="-4"/><feGaussianBlur stdDeviation="2"/><feComposite in2="hardAlpha" k2="-1" k3="1" operator="arithmetic"/><feColorMatrix values="0 0 0 0 0.976471 0 0 0 0 0.92549 0 0 0 0 0.992157 0 0 0 1 0"/><feBlend in2="shape" result="effect2_innerShadow_16980_3304"/></filter><filter id="f" width="71.2" height="71.2" x="1105.8" y="95.8" color-interpolation-filters="sRGB" filterUnits="userSpaceOnUse"><feFlood flood-opacity="0" result="BackgroundImageFix"/><feColorMatrix in="SourceAlpha" result="hardAlpha" values="0 0 0 0 0 0 0 0 0 0 0 0 0 0 0 0 0 0 127 0"/><feOffset dy="4"/><feGaussianBlur stdDeviation="4"/><feComposite in2="hardAlpha" operator="out"/><feColorMatrix values="0 0 0 0 0.890674 0 0 0 0 0.758406 0 0 0 0 0.848789 0 0 0 0.6 0"/><feBlend in2="BackgroundImageFix" result="effect1_dropShadow_16980_3304"/><feBlend in="SourceGraphic" in2="effect1_dropShadow_16980_3304" result="shape"/><feColorMatrix in="SourceAlpha" result="hardAlpha" values="0 0 0 0 0 0 0 0 0 0 0 0 0 0 0 0 0 0 127 0"/><feOffset dx="-4" dy="-4"/><feGaussianBlur stdDeviation="2"/><feComposite in2="hardAlpha" k2="-1" k3="1" operator="arithmetic"/><feColorMatrix values="0 0 0 0 0.976471 0 0 0 0 0.92549 0 0 0 0 0.992157 0 0 0 1 0"/><feBlend in2="shape" result="effect2_innerShadow_16980_3304"/></filter><filter id="g" width="71.2" height="71.2" x="1202.8" y="18.8" color-interpolation-filters="sRGB" filterUnits="userSpaceOnUse"><feFlood flood-opacity="0" result="BackgroundImageFix"/><feColorMatrix in="SourceAlpha" result="hardAlpha" values="0 0 0 0 0 0 0 0 0 0 0 0 0 0 0 0 0 0 127 0"/><feOffset dy="4"/><feGaussianBlur stdDeviation="4"/><feComposite in2="hardAlpha" operator="out"/><feColorMatrix values="0 0 0 0 0.890674 0 0 0 0 0.758406 0 0 0 0 0.848789 0 0 0 0.6 0"/><feBlend in2="BackgroundImageFix" result="effect1_dropShadow_16980_3304"/><feBlend in="SourceGraphic" in2="effect1_dropShadow_16980_3304" result="shape"/><feColorMatrix in="SourceAlpha" result="hardAlpha" values="0 0 0 0 0 0 0 0 0 0 0 0 0 0 0 0 0 0 127 0"/><feOffset dx="-4" dy="-4"/><feGaussianBlur stdDeviation="2"/><feComposite in2="hardAlpha" k2="-1" k3="1" operator="arithmetic"/><feColorMatrix values="0 0 0 0 0.976471 0 0 0 0 0.92549 0 0 0 0 0.992157 0 0 0 1 0"/><feBlend in2="shape" result="effect2_innerShadow_16980_3304"/></filter><filter id="h" width="71.2" height="71.2" x="852.8" y="-5.2" color-interpolation-filters="sRGB" filterUnits="userSpaceOnUse"><feFlood flood-opacity="0" result="BackgroundImageFix"/><feColorMatrix in="SourceAlpha" result="hardAlpha" values="0 0 0 0 0 0 0 0 0 0 0 0 0 0 0 0 0 0 127 0"/><feOffset dy="4"/><feGaussianBlur stdDeviation="4"/><feComposite in2="hardAlpha" operator="out"/><feColorMatrix values="0 0 0 0 0.890674 0 0 0 0 0.758406 0 0 0 0 0.848789 0 0 0 0.6 0"/><feBlend in2="BackgroundImageFix" result="effect1_dropShadow_16980_3304"/><feBlend in="SourceGraphic" in2="effect1_dropShadow_16980_3304" result="shape"/><feColorMatrix in="SourceAlpha" result="hardAlpha" values="0 0 0 0 0 0 0 0 0 0 0 0 0 0 0 0 0 0 127 0"/><feOffset dx="-4" dy="-4"/><feGaussianBlur stdDeviation="2"/><feComposite in2="hardAlpha" k2="-1" k3="1" operator="arithmetic"/><feColorMatrix values="0 0 0 0 0.976471 0 0 0 0 0.92549 0 0 0 0 0.992157 0 0 0 1 0"/><feBlend in2="shape" result="effect2_innerShadow_16980_3304"/></filter><filter id="i" width="30.7" height="32.7" x="1162.9" y="-8.1" color-interpolation-filters="sRGB" filterUnits="userSpaceOnUse"><feFlood flood-opacity="0" result="BackgroundImageFix"/><feColorMatrix in="SourceAlpha" result="hardAlpha" values="0 0 0 0 0 0 0 0 0 0 0 0 0 0 0 0 0 0 127 0"/><feOffset dy="4"/><feGaussianBlur stdDeviation="2"/><feComposite in2="hardAlpha" operator="out"/><feColorMatrix values="0 0 0 0 0.950716 0 0 0 0 0.814762 0 0 0 0 0.907664 0 0 0 0.6 0"/><feBlend in2="BackgroundImageFix" result="effect1_dropShadow_16980_3304"/><feBlend in="SourceGraphic" in2="effect1_dropShadow_16980_3304" result="shape"/><feColorMatrix in="SourceAlpha" result="hardAlpha" values="0 0 0 0 0 0 0 0 0 0 0 0 0 0 0 0 0 0 127 0"/><feOffset dy="-2"/><feGaussianBlur stdDeviation="2"/><feComposite in2="hardAlpha" k2="-1" k3="1" operator="arithmetic"/><feColorMatrix values="0 0 0 0 0.976471 0 0 0 0 0.92549 0 0 0 0 0.992157 0 0 0 1 0"/><feBlend in2="shape" result="effect2_innerShadow_16980_3304"/></filter><filter id="j" width="30.7" height="32.7" x="261.9" y="105.9" color-interpolation-filters="sRGB" filterUnits="userSpaceOnUse"><feFlood flood-opacity="0" result="BackgroundImageFix"/><feColorMatrix in="SourceAlpha" result="hardAlpha" values="0 0 0 0 0 0 0 0 0 0 0 0 0 0 0 0 0 0 127 0"/><feOffset dy="4"/><feGaussianBlur stdDeviation="2"/><feComposite in2="hardAlpha" operator="out"/><feColorMatrix values="0 0 0 0 0.950716 0 0 0 0 0.814762 0 0 0 0 0.907664 0 0 0 0.6 0"/><feBlend in2="BackgroundImageFix" result="effect1_dropShadow_16980_3304"/><feBlend in="SourceGraphic" in2="effect1_dropShadow_16980_3304" result="shape"/><feColorMatrix in="SourceAlpha" result="hardAlpha" values="0 0 0 0 0 0 0 0 0 0 0 0 0 0 0 0 0 0 127 0"/><feOffset dy="-2"/><feGaussianBlur stdDeviation="2"/><feComposite in2="hardAlpha" k2="-1" k3="1" operator="arithmetic"/><feColorMatrix values="0 0 0 0 0.976471 0 0 0 0 0.92549 0 0 0 0 0.992157 0 0 0 1 0"/><feBlend in2="shape" result="effect2_innerShadow_16980_3304"/></filter><filter id="k" width="30.7" height="32.7" x="1357.9" y="42.9" color-interpolation-filters="sRGB" filterUnits="userSpaceOnUse"><feFlood flood-opacity="0" result="BackgroundImageFix"/><feColorMatrix in="SourceAlpha" result="hardAlpha" values="0 0 0 0 0 0 0 0 0 0 0 0 0 0 0 0 0 0 127 0"/><feOffset dy="4"/><feGaussianBlur stdDeviation="2"/><feComposite in2="hardAlpha" operator="out"/><feColorMatrix values="0 0 0 0 0.950716 0 0 0 0 0.814762 0 0 0 0 0.907664 0 0 0 0.6 0"/><feBlend in2="BackgroundImageFix" result="effect1_dropShadow_16980_3304"/><feBlend in="SourceGraphic" in2="effect1_dropShadow_16980_3304" result="shape"/><feColorMatrix in="SourceAlpha" result="hardAlpha" values="0 0 0 0 0 0 0 0 0 0 0 0 0 0 0 0 0 0 127 0"/><feOffset dy="-2"/><feGaussianBlur stdDeviation="2"/><feComposite in2="hardAlpha" k2="-1" k3="1" operator="arithmetic"/><feColorMatrix values="0 0 0 0 0.976471 0 0 0 0 0.92549 0 0 0 0 0.992157 0 0 0 1 0"/><feBlend in2="shape" result="effect2_innerShadow_16980_3304"/></filter><filter id="l" width="30.7" height="32.7" x="118.9" y="12.9" color-interpolation-filters="sRGB" filterUnits="userSpaceOnUse"><feFlood flood-opacity="0" result="BackgroundImageFix"/><feColorMatrix in="SourceAlpha" result="hardAlpha" values="0 0 0 0 0 0 0 0 0 0 0 0 0 0 0 0 0 0 127 0"/><feOffset dy="4"/><feGaussianBlur stdDeviation="2"/><feComposite in2="hardAlpha" operator="out"/><feColorMatrix values="0 0 0 0 0.950716 0 0 0 0 0.814762 0 0 0 0 0.907664 0 0 0 0.6 0"/><feBlend in2="BackgroundImageFix" result="effect1_dropShadow_16980_3304"/><feBlend in="SourceGraphic" in2="effect1_dropShadow_16980_3304" result="shape"/><feColorMatrix in="SourceAlpha" result="hardAlpha" values="0 0 0 0 0 0 0 0 0 0 0 0 0 0 0 0 0 0 127 0"/><feOffset dy="-2"/><feGaussianBlur stdDeviation="2"/><feComposite in2="hardAlpha" k2="-1" k3="1" operator="arithmetic"/><feColorMatrix values="0 0 0 0 0.976471 0 0 0 0 0.92549 0 0 0 0 0.992157 0 0 0 1 0"/><feBlend in2="shape" result="effect2_innerShadow_16980_3304"/></filter><filter id="m" width="30.7" height="32.7" x=".9" y="68.9" color-interpolation-filters="sRGB" filterUnits="userSpaceOnUse"><feFlood flood-opacity="0" result="BackgroundImageFix"/><feColorMatrix in="SourceAlpha" result="hardAlpha" values="0 0 0 0 0 0 0 0 0 0 0 0 0 0 0 0 0 0 127 0"/><feOffset dy="4"/><feGaussianBlur stdDeviation="2"/><feComposite in2="hardAlpha" operator="out"/><feColorMatrix values="0 0 0 0 0.950716 0 0 0 0 0.814762 0 0 0 0 0.907664 0 0 0 0.6 0"/><feBlend in2="BackgroundImageFix" result="effect1_dropShadow_16980_3304"/><feBlend in="SourceGraphic" in2="effect1_dropShadow_16980_3304" result="shape"/><feColorMatrix in="SourceAlpha" result="hardAlpha" values="0 0 0 0 0 0 0 0 0 0 0 0 0 0 0 0 0 0 127 0"/><feOffset dy="-2"/><feGaussianBlur stdDeviation="2"/><feComposite in2="hardAlpha" k2="-1" k3="1" operator="arithmetic"/><feColorMatrix values="0 0 0 0 0.976471 0 0 0 0 0.92549 0 0 0 0 0.992157 0 0 0 1 0"/><feBlend in2="shape" result="effect2_innerShadow_16980_3304"/></filter><filter id="n" width="30.7" height="32.7" x="397.9" y="-9.1" color-interpolation-filters="sRGB" filterUnits="userSpaceOnUse"><feFlood flood-opacity="0" result="BackgroundImageFix"/><feColorMatrix in="SourceAlpha" result="hardAlpha" values="0 0 0 0 0 0 0 0 0 0 0 0 0 0 0 0 0 0 127 0"/><feOffset dy="4"/><feGaussianBlur stdDeviation="2"/><feComposite in2="hardAlpha" operator="out"/><feColorMatrix values="0 0 0 0 0.950716 0 0 0 0 0.814762 0 0 0 0 0.907664 0 0 0 0.6 0"/><feBlend in2="BackgroundImageFix" result="effect1_dropShadow_16980_3304"/><feBlend in="SourceGraphic" in2="effect1_dropShadow_16980_3304" result="shape"/><feColorMatrix in="SourceAlpha" result="hardAlpha" values="0 0 0 0 0 0 0 0 0 0 0 0 0 0 0 0 0 0 127 0"/><feOffset dy="-2"/><feGaussianBlur stdDeviation="2"/><feComposite in2="hardAlpha" k2="-1" k3="1" operator="arithmetic"/><feColorMatrix values="0 0 0 0 0.976471 0 0 0 0 0.92549 0 0 0 0 0.992157 0 0 0 1 0"/><feBlend in2="shape" result="effect2_innerShadow_16980_3304"/></filter><filter id="o" width="30.7" height="32.7" x="973.9" y="82.9" color-interpolation-filters="sRGB" filterUnits="userSpaceOnUse"><feFlood flood-opacity="0" result="BackgroundImageFix"/><feColorMatrix in="SourceAlpha" result="hardAlpha" values="0 0 0 0 0 0 0 0 0 0 0 0 0 0 0 0 0 0 127 0"/><feOffset dy="4"/><feGaussianBlur stdDeviation="2"/><feComposite in2="hardAlpha" operator="out"/><feColorMatrix values="0 0 0 0 0.950716 0 0 0 0 0.814762 0 0 0 0 0.907664 0 0 0 0.6 0"/><feBlend in2="BackgroundImageFix" result="effect1_dropShadow_16980_3304"/><feBlend in="SourceGraphic" in2="effect1_dropShadow_16980_3304" result="shape"/><feColorMatrix in="SourceAlpha" result="hardAlpha" values="0 0 0 0 0 0 0 0 0 0 0 0 0 0 0 0 0 0 127 0"/><feOffset dy="-2"/><feGaussianBlur stdDeviation="2"/><feComposite in2="hardAlpha" k2="-1" k3="1" operator="arithmetic"/><feColorMatrix values="0 0 0 0 0.976471 0 0 0 0 0.92549 0 0 0 0 0.992157 0 0 0 1 0"/><feBlend in2="shape" result="effect2_innerShadow_16980_3304"/></filter><filter id="p" width="11.35" height="11.35" x="42.22" y="27.22" color-interpolation-filters="sRGB" filterUnits="userSpaceOnUse"><feFlood flood-opacity="0" result="BackgroundImageFix"/><feBlend in="SourceGraphic" in2="BackgroundImageFix" result="shape"/><feGaussianBlur result="effect1_foregroundBlur_16980_3304" stdDeviation=".5"/></filter><filter id="q" width="11.35" height="11.35" x="198.22" y="72.22" color-interpolation-filters="sRGB" filterUnits="userSpaceOnUse"><feFlood flood-opacity="0" result="BackgroundImageFix"/><feBlend in="SourceGraphic" in2="BackgroundImageFix" result="shape"/><feGaussianBlur result="effect1_foregroundBlur_16980_3304" stdDeviation=".5"/></filter><filter id="r" width="11.35" height="11.35" x="354.23" y="17.22" color-interpolation-filters="sRGB" filterUnits="userSpaceOnUse"><feFlood flood-opacity="0" result="BackgroundImageFix"/><feBlend in="SourceGraphic" in2="BackgroundImageFix" result="shape"/><feGaussianBlur result="effect1_foregroundBlur_16980_3304" stdDeviation=".5"/></filter><filter id="s" width="11.35" height="11.35" x="497.23" y="80.22" color-interpolation-filters="sRGB" filterUnits="userSpaceOnUse"><feFlood flood-opacity="0" result="BackgroundImageFix"/><feBlend in="SourceGraphic" in2="BackgroundImageFix" result="shape"/><feGaussianBlur result="effect1_foregroundBlur_16980_3304" stdDeviation=".5"/></filter><filter id="t" width="11.35" height="11.35" x="627.23" y="12.22" color-interpolation-filters="sRGB" filterUnits="userSpaceOnUse"><feFlood flood-opacity="0" result="BackgroundImageFix"/><feBlend in="SourceGraphic" in2="BackgroundImageFix" result="shape"/><feGaussianBlur result="effect1_foregroundBlur_16980_3304" stdDeviation=".5"/></filter><filter id="u" width="11.35" height="11.35" x="891.23" y="96.22" color-interpolation-filters="sRGB" filterUnits="userSpaceOnUse"><feFlood flood-opacity="0" result="BackgroundImageFix"/><feBlend in="SourceGraphic" in2="BackgroundImageFix" result="shape"/><feGaussianBlur result="effect1_foregroundBlur_16980_3304" stdDeviation=".5"/></filter><filter id="v" width="11.35" height="11.35" x="809.23" y="30.22" color-interpolation-filters="sRGB" filterUnits="userSpaceOnUse"><feFlood flood-opacity="0" result="BackgroundImageFix"/><feBlend in="SourceGraphic" in2="BackgroundImageFix" result="shape"/><feGaussianBlur result="effect1_foregroundBlur_16980_3304" stdDeviation=".5"/></filter><filter id="w" width="11.35" height="11.35" x="968.23" y="16.22" color-interpolation-filters="sRGB" filterUnits="userSpaceOnUse"><feFlood flood-opacity="0" result="BackgroundImageFix"/><feBlend in="SourceGraphic" in2="BackgroundImageFix" result="shape"/><feGaussianBlur result="effect1_foregroundBlur_16980_3304" stdDeviation=".5"/></filter><filter id="x" width="11.35" height="11.35" x="1075.22" y="107.22" color-interpolation-filters="sRGB" filterUnits="userSpaceOnUse"><feFlood flood-opacity="0" result="BackgroundImageFix"/><feBlend in="SourceGraphic" in2="BackgroundImageFix" result="shape"/><feGaussianBlur result="effect1_foregroundBlur_16980_3304" stdDeviation=".5"/></filter><filter id="y" width="11.35" height="11.35" x="1145.22" y="30.22" color-interpolation-filters="sRGB" filterUnits="userSpaceOnUse"><feFlood flood-opacity="0" result="BackgroundImageFix"/><feBlend in="SourceGraphic" in2="BackgroundImageFix" result="shape"/><feGaussianBlur result="effect1_foregroundBlur_16980_3304" stdDeviation=".5"/></filter><filter id="z" width="11.35" height="11.35" x="1234.22" y="114.22" color-interpolation-filters="sRGB" filterUnits="userSpaceOnUse"><feFlood flood-opacity="0" result="BackgroundImageFix"/><feBlend in="SourceGraphic" in2="BackgroundImageFix" result="shape"/><feGaussianBlur result="effect1_foregroundBlur_16980_3304" stdDeviation=".5"/></filter><filter id="A" width="11.35" height="11.35" x="1320.22" y="24.22" color-interpolation-filters="sRGB" filterUnits="userSpaceOnUse"><feFlood flood-opacity="0" result="BackgroundImageFix"/><feBlend in="SourceGraphic" in2="BackgroundImageFix" result="shape"/><feGaussianBlur result="effect1_foregroundBlur_16980_3304" stdDeviation=".5"/></filter><filter id="B" width="11.35" height="11.35" x="1384.22" y="99.22" color-interpolation-filters="sRGB" filterUnits="userSpaceOnUse"><feFlood flood-opacity="0" result="BackgroundImageFix"/><feBlend in="SourceGraphic" in2="BackgroundImageFix" result="shape"/><feGaussianBlur result="effect1_foregroundBlur_16980_3304" stdDeviation=".5"/></filter></defs></svg>